<?xml version="1.0" standalone="no"?>
<!DOCTYPE svg PUBLIC "-//W3C//DTD SVG 20010904//EN"
 "http://www.w3.org/TR/2001/REC-SVG-20010904/DTD/svg10.dtd">
<svg version="1.0" xmlns="http://www.w3.org/2000/svg"
 width="260.000000pt" height="260.000000pt" viewBox="0 0 260.000000 260.000000"
 preserveAspectRatio="xMidYMid meet">
<metadata>
Created by potrace 1.14, written by Peter Selinger 2001-2017
</metadata>
<g transform="translate(0.000000,260.000000) scale(0.100000,-0.100000)"
fill="#000000" stroke="none">
<path d="M0 1300 l0 -1300 1300 0 1300 0 0 1300 0 1300 -1300 0 -1300 0 0
-1300z m1727 716 c215 -162 334 -393 335 -651 1 -215 -72 -400 -220 -557 -265
-281 -685 -369 -1054 -221 -49 19 -88 37 -88 39 0 2 32 53 70 114 39 61 70
112 70 114 0 2 -22 18 -49 35 -60 39 -149 131 -184 192 -127 217 -91 484 88
664 131 131 269 188 460 189 109 0 128 -3 248 -46 43 -16 57 -25 54 -37 -2 -9
-140 -233 -305 -499 -166 -265 -302 -486 -302 -491 0 -27 204 -81 305 -81 288
0 547 196 610 461 51 217 -47 456 -240 584 -35 23 -53 41 -48 48 3 7 35 58 71
114 l63 103 28 -14 c15 -8 54 -35 88 -60z"/>
</g>
</svg>
